<?xml version="1.0" standalone="no"?>
<!DOCTYPE svg PUBLIC "-//W3C//DTD SVG 20010904//EN"
 "http://www.w3.org/TR/2001/REC-SVG-20010904/DTD/svg10.dtd">
<svg version="1.0" xmlns="http://www.w3.org/2000/svg"
 width="1184.000000pt" height="1184.000000pt" viewBox="0 0 1184.000000 1184.000000"
 preserveAspectRatio="xMidYMid meet">
<metadata>
Created by potrace 1.14, written by Peter Selinger 2001-2017
</metadata>
<g transform="translate(0.000000,1184.000000) scale(0.100000,-0.100000)"
fill="#000000" stroke="none">
<path d="M5724 10738 c-65 -9 -125 -28 -146 -46 -10 -8 -18 -12 -18 -9 0 9
-44 -28 -91 -75 -75 -76 -94 -167 -53 -253 17 -36 114 -142 174 -190 14 -11
54 -44 90 -73 36 -30 74 -61 85 -69 95 -76 270 -241 330 -314 46 -55 115 -159
152 -229 44 -83 96 -227 88 -240 -3 -5 0 -12 6 -15 5 -4 8 -13 5 -20 -2 -7 -2
-16 1 -19 6 -6 13 -70 13 -106 0 -8 0 -24 0 -35 4 -81 -15 -328 -25 -345 -3
-5 0 -10 7 -10 9 0 9 -3 2 -8 -8 -5 -10 -71 -9 -212 2 -113 4 -205 5 -205 3 0
9 -80 11 -142 1 -29 4 -53 8 -53 3 0 6 -27 6 -61 0 -33 2 -62 5 -64 3 -2 5
-24 4 -49 0 -25 2 -46 5 -46 3 0 6 -15 7 -32 3 -86 10 -148 17 -148 4 0 3 -8
-2 -19 -6 -10 -7 -21 -3 -25 3 -4 7 -24 9 -44 1 -20 4 -77 8 -127 3 -49 8
-129 9 -176 2 -47 6 -91 10 -97 3 -6 2 -14 -4 -17 -8 -5 -8 -11 0 -20 8 -9 8
-15 0 -20 -6 -3 -7 -11 -4 -17 4 -6 6 -49 4 -97 -3 -132 -8 -256 -10 -256 -1
0 -3 -22 -6 -50 -5 -75 -11 -130 -14 -130 -1 0 -3 -15 -5 -34 -2 -19 -7 -53
-10 -75 -4 -23 -8 -53 -9 -68 0 -16 -3 -28 -6 -28 -4 0 -7 -11 -8 -25 -3 -47
-5 -55 -13 -55 -5 0 -6 -7 -3 -15 4 -8 2 -21 -3 -28 -5 -6 -8 -22 -7 -34 0
-13 -2 -23 -6 -23 -5 0 -7 -8 -5 -17 1 -10 -2 -24 -8 -30 -5 -7 -6 -13 -2 -13
4 0 2 -7 -5 -15 -7 -8 -9 -15 -5 -15 4 0 3 -6 -2 -12 -6 -7 -9 -21 -8 -30 2
-10 0 -18 -4 -18 -4 0 -8 -6 -9 -12 0 -7 -3 -24 -7 -38 -4 -14 -9 -37 -12 -52
-3 -16 -10 -28 -16 -28 -6 0 -8 -3 -5 -6 3 -3 -5 -35 -19 -72 -14 -37 -28 -79
-33 -93 -4 -14 -15 -40 -24 -57 -9 -18 -14 -32 -11 -32 3 0 0 -10 -7 -22 -7
-13 -11 -26 -10 -30 1 -5 -3 -8 -8 -8 -5 0 -9 -3 -8 -7 1 -5 -7 -28 -18 -53
-10 -25 -18 -48 -16 -52 1 -5 -3 -8 -8 -8 -6 0 -10 -9 -10 -20 0 -11 -4 -20
-10 -20 -5 0 -10 -9 -10 -19 0 -11 -7 -26 -15 -35 -8 -8 -15 -21 -15 -28 0 -8
-5 -19 -12 -26 -7 -7 -8 -12 -2 -12 5 0 4 -4 -1 -8 -6 -4 -24 -34 -40 -67 -16
-33 -35 -66 -42 -74 -8 -7 -12 -18 -10 -25 2 -6 -1 -16 -7 -23 -29 -33 -34
-41 -29 -47 4 -3 0 -6 -7 -6 -7 0 -10 -3 -7 -7 4 -3 -3 -18 -15 -31 -13 -14
-16 -22 -8 -18 8 4 6 0 -4 -8 -11 -9 -16 -16 -12 -16 5 0 -3 -15 -18 -34 -14
-19 -26 -38 -26 -43 0 -5 -16 -32 -35 -60 -19 -29 -35 -57 -35 -63 0 -5 -4
-10 -10 -10 -5 0 -10 -4 -10 -10 0 -5 -13 -29 -29 -52 -16 -24 -27 -47 -24
-52 4 -5 1 -6 -6 -2 -8 5 -14 0 -18 -13 -3 -12 -10 -21 -15 -21 -5 0 -6 -4 -3
-10 3 -5 2 -10 -4 -10 -6 0 -18 -15 -27 -32 -9 -18 -20 -35 -23 -38 -10 -8
-51 -69 -51 -75 0 -3 -10 -16 -23 -28 -13 -12 -33 -39 -46 -60 -12 -20 -27
-35 -32 -31 -5 3 -9 -2 -9 -10 0 -8 -10 -24 -22 -36 -12 -11 -18 -20 -14 -20
4 0 -3 -10 -16 -23 -13 -13 -38 -41 -56 -63 -53 -63 -112 -129 -187 -209 -38
-41 -75 -80 -82 -87 -6 -7 -27 -27 -46 -45 -19 -17 -32 -34 -29 -37 3 -3 0 -6
-7 -6 -7 0 -44 -31 -82 -69 -38 -39 -69 -68 -69 -66 0 2 -15 -11 -33 -28 -37
-35 -108 -97 -157 -137 -17 -14 -43 -35 -57 -47 -14 -13 -30 -23 -35 -23 -5 0
-6 -4 -3 -10 3 -5 1 -10 -5 -10 -6 0 -47 -27 -90 -60 -43 -33 -84 -60 -89 -60
-6 0 -16 -9 -23 -20 -7 -11 -18 -20 -25 -20 -6 0 -13 -3 -15 -7 -3 -9 -124
-93 -133 -93 -3 0 -14 -9 -25 -20 -11 -11 -27 -20 -35 -20 -8 0 -15 -5 -15
-10 0 -6 -11 -15 -25 -20 -14 -5 -25 -14 -25 -19 0 -5 -11 -12 -25 -15 -14 -4
-25 -11 -25 -16 0 -6 -4 -10 -9 -10 -14 0 -91 -53 -91 -62 0 -5 -4 -6 -10 -3
-5 3 -17 -3 -27 -15 -10 -11 -22 -20 -29 -20 -6 0 -19 -9 -29 -20 -10 -11 -23
-20 -30 -20 -7 0 -23 -10 -36 -21 -13 -12 -36 -26 -51 -31 -16 -6 -28 -13 -28
-18 0 -4 -13 -13 -30 -20 -16 -7 -30 -16 -30 -21 0 -4 -10 -11 -21 -14 -21 -7
-116 -64 -169 -102 -14 -10 -27 -18 -30 -18 -3 0 -34 -18 -70 -39 -141 -84
-258 -149 -387 -216 -46 -24 -83 -47 -83 -52 0 -5 -4 -7 -9 -4 -4 3 -17 -1
-27 -9 -10 -8 -27 -15 -36 -15 -10 0 -18 -4 -18 -10 0 -5 -6 -10 -14 -10 -8 0
-21 -7 -30 -15 -8 -9 -17 -15 -18 -14 -5 4 -342 -163 -373 -185 -16 -12 -34
-27 -38 -34 -5 -7 -13 -9 -19 -6 -6 4 -8 3 -5 -3 4 -6 0 -16 -8 -23 -24 -20
-48 -118 -47 -190 2 -161 32 -245 119 -328 33 -31 93 -68 93 -58 0 3 10 2 23
-3 12 -5 45 -12 72 -15 28 -4 57 -9 65 -11 8 -2 31 -6 50 -9 19 -3 49 -8 65
-12 35 -7 58 -11 104 -18 18 -3 42 -8 52 -11 11 -4 34 -8 52 -10 41 -4 97 -14
122 -22 11 -3 31 -7 45 -9 14 -2 39 -5 55 -8 17 -3 41 -8 55 -10 14 -3 25 -5
25 -6 0 -1 11 -3 25 -5 32 -4 135 -21 190 -31 14 -3 43 -7 65 -10 22 -3 51 -7
65 -9 248 -34 398 -46 585 -46 148 0 262 9 365 27 19 3 45 6 58 7 12 0 22 3
22 7 0 3 10 6 23 6 30 2 83 13 132 26 22 6 47 13 55 14 23 4 121 34 155 47 17
6 35 12 40 12 14 0 84 24 122 41 17 8 33 14 36 14 3 0 18 5 34 12 15 6 33 12
38 14 6 1 24 8 40 15 17 7 32 13 35 14 5 1 52 22 120 53 19 8 38 16 42 16 3 1
10 4 14 9 4 4 15 7 25 7 9 0 19 5 21 11 2 5 11 11 20 12 9 2 23 9 32 16 9 7
16 11 16 7 0 -4 11 1 25 10 14 9 25 12 25 8 0 -5 4 -4 8 1 8 12 64 39 75 37 4
-1 7 2 7 7 0 5 9 12 19 16 33 10 225 117 233 129 4 6 8 7 8 3 0 -5 13 1 29 12
16 12 34 21 40 21 6 0 11 4 11 10 0 5 11 12 25 16 14 3 25 10 25 16 0 5 4 7 9
4 5 -4 11 -2 13 2 1 5 46 36 98 70 114 75 139 92 161 114 10 9 20 14 23 11 3
-3 8 2 12 11 3 9 10 16 16 16 5 0 15 6 23 12 7 7 26 22 41 33 16 11 39 30 51
42 13 12 23 20 23 17 0 -4 50 39 92 78 10 10 18 15 18 11 0 -4 16 10 35 31 19
21 35 36 35 33 0 -4 32 24 71 61 158 149 229 222 229 233 0 7 3 10 6 7 6 -7
26 13 121 118 93 104 103 116 103 126 0 5 5 6 10 3 6 -3 10 -2 10 3 0 5 12 22
26 38 14 16 46 55 71 87 25 31 50 57 55 57 5 0 7 4 4 9 -4 5 -3 11 2 13 4 1
23 23 42 48 19 25 39 50 45 56 5 6 17 21 25 33 25 37 121 165 141 189 10 12
19 26 19 31 0 5 7 14 15 21 9 7 14 15 11 17 -2 2 7 16 20 30 13 14 24 32 24
39 0 7 6 17 13 21 7 4 24 26 37 48 14 22 28 45 32 50 19 24 58 87 58 94 0 4 8
16 18 27 9 11 28 41 42 67 13 26 28 47 31 47 4 0 9 8 12 17 5 16 25 53 88 163
8 14 16 27 19 30 6 6 210 418 210 424 0 3 11 29 24 58 24 55 38 90 40 98 4 15
41 107 46 115 9 12 24 67 22 78 -1 4 3 7 8 7 5 0 9 3 8 8 -2 4 4 27 13 52 9
25 21 61 28 80 7 19 14 45 17 57 2 12 9 35 15 50 6 16 13 36 15 46 4 19 8 32
24 92 6 22 13 49 15 60 2 11 4 21 5 23 2 1 3 5 4 10 1 4 4 12 7 17 3 6 4 20 3
33 0 12 3 22 7 22 5 0 8 3 7 8 -1 4 1 21 5 37 7 33 18 89 22 120 2 11 4 20 5
20 2 0 7 23 14 70 4 23 8 52 11 65 3 13 7 42 10 65 4 22 8 52 11 66 5 35 15
106 19 144 13 125 19 185 19 217 1 21 3 38 6 38 3 0 6 28 6 63 5 181 10 283
17 295 5 6 4 12 -1 12 -4 0 -8 14 -8 30 0 17 4 30 8 30 5 0 6 5 2 12 -4 7 -9
73 -11 148 -3 134 -10 275 -13 275 0 0 -3 27 -5 60 -3 33 -7 76 -10 95 -3 19
-8 59 -10 88 -3 30 -7 57 -10 62 -3 5 -8 30 -11 57 -10 73 -12 88 -14 88 -1 0
-4 14 -6 30 -3 17 -12 53 -20 81 -8 29 -14 56 -13 60 1 5 0 16 -4 24 -11 29
-38 117 -42 139 -5 28 -27 93 -36 106 -3 6 -10 24 -14 40 -11 40 -12 44 -15
53 -1 4 -2 10 -1 15 0 4 -4 7 -10 7 -5 0 -7 5 -4 10 3 6 2 10 -3 10 -5 0 -9 6
-9 13 0 6 -14 43 -31 80 -18 38 -32 73 -32 78 0 5 -4 9 -10 9 -5 0 -9 3 -8 8
1 8 -23 58 -63 127 -16 28 -33 60 -39 73 -5 12 -14 22 -20 22 -6 0 -9 4 -6 9
4 5 3 11 -1 13 -12 5 -53 66 -53 78 0 5 -4 10 -8 10 -4 0 -26 24 -47 53 -45
58 -217 233 -284 287 -24 19 -58 47 -76 63 -18 15 -36 27 -40 27 -4 0 -15 8
-24 18 -22 23 -61 50 -306 213 -115 76 -221 148 -235 159 -14 11 -30 20 -36
20 -6 0 -19 9 -29 20 -10 11 -24 20 -32 20 -7 0 -13 5 -13 10 0 6 -6 10 -14
10 -8 0 -16 4 -18 9 -1 5 -39 36 -83 69 -119 89 -240 215 -358 372 -159 210
-223 330 -231 434 -2 24 -7 49 -10 55 -4 6 -4 15 -1 21 6 10 -59 79 -76 81
-13 2 -22 5 -41 13 -9 4 -22 9 -30 10 -7 2 -20 6 -28 9 -14 5 -88 22 -135 31
-11 2 -31 7 -45 10 -72 17 -222 24 -296 14z"/>
<path d="M9314 10423 c3 -16 8 -50 11 -78 3 -27 8 -61 10 -75 2 -14 7 -45 10
-70 13 -99 17 -129 35 -215 11 -49 18 -90 17 -92 -2 -1 -39 19 -82 45 -79 47
-107 61 -255 129 -149 69 -162 74 -164 71 -4 -5 -47 -132 -56 -163 -4 -16 -26
-82 -48 -145 -23 -63 -39 -116 -38 -118 2 -1 16 -5 32 -8 16 -3 40 -7 54 -10
14 -2 45 -7 70 -10 25 -3 52 -7 60 -9 8 -3 33 -7 55 -11 22 -3 89 -14 150 -24
60 -10 113 -16 117 -14 4 3 8 1 8 -4 0 -5 -26 -30 -57 -55 -88 -71 -347 -337
-337 -347 5 -4 90 -67 188 -139 l179 -132 63 113 c60 107 140 265 179 353 l17
40 16 -35 c56 -129 172 -356 229 -447 13 -22 16 -21 194 113 99 75 179 140
177 145 -9 26 -284 311 -341 354 -21 15 -36 30 -34 32 3 2 38 6 78 9 66 4 156
16 214 28 11 2 70 14 131 26 134 27 138 29 125 61 -6 13 -36 105 -67 204 -31
99 -60 183 -63 187 -7 9 -21 3 -293 -133 -120 -59 -218 -102 -218 -96 0 7 7
37 15 67 8 30 22 109 30 175 9 66 17 134 20 150 2 17 7 58 11 93 l6 62 -227 0
-227 0 6 -27z"/>
</g>
</svg>
